<svg id="illustration" xmlns="http://www.w3.org/2000/svg" viewBox="0 0 350 350"><defs><style>.cls-1{fill:none;}.cls-2{fill:#ececeb;}.cls-3{clip-path:url(#clip-path);}.cls-4{fill:#738d57;}.cls-5{fill:#99c26d;}.cls-6{fill:#5a753d;}.cls-7{fill:#8f8f8f;}.cls-8{fill:#dddddc;}.cls-9{fill:#c4c4c4;}.cls-10{fill:#72c9a6;}.cls-11{fill:#54b08b;}.cls-12{fill:#35785d;}.cls-13{fill:#dfbda5;}.cls-14{fill:#cececd;}.cls-15{fill:#c3987b;}.cls-16{fill:#8b6651;}.cls-17{fill:#2b2b2b;}.cls-18{fill:#e8cab6;}</style><clipPath id="clip-path"><circle class="cls-1" cx="175" cy="175" r="175"/></clipPath></defs><circle class="cls-2" cx="175" cy="175" r="175"/><g class="cls-3"><path class="cls-4" d="M149,355.69l4.42,0-26.88-30.39-16.69-2.51-44-4.61,46.43,37.46Q130.67,355.78,149,355.69Z"/><path class="cls-5" d="M68.81,354.91c12.57.24,25.15.47,37.72.62L112,342.12l-46.13-24L38.68,354.32Z"/><path class="cls-4" d="M104.82,355.51l5.05-10.09-17.64,9.91Z"/><path class="cls-6" d="M125.91,355.7,112,342.12l-8.73,13.37Q114.6,355.64,125.91,355.7Z"/><polygon class="cls-7" points="308.4 191.43 261.74 200.44 264.85 223.76 269.61 252.06 293.2 235.63 308.4 191.43"/><polygon class="cls-8" points="256.21 169.9 269.13 204.97 308.4 191.43 256.21 169.9"/><polygon class="cls-7" points="274.6 281.68 283.68 289.06 302.82 292.97 319.56 257.3 292.9 266.21 274.6 281.68"/><polygon class="cls-9" points="293.2 235.63 261.74 235.63 274.6 281.68 319.56 257.3 293.2 235.63"/><polygon class="cls-9" points="99.48 266.21 60.97 276.76 49.74 306.16 72.92 310.44 102.51 285.35 99.48 266.21"/><polygon class="cls-7" points="94.49 239.34 40.96 253.39 60.97 276.76 97.4 283.64 107.99 266.21 94.49 239.34"/><polygon class="cls-8" points="94.64 200.8 84.06 203.09 75.99 192.78 40.96 253.39 95.7 245.83 94.64 200.8"/><polygon class="cls-7" points="124.92 291.61 49.74 306.16 65.89 318.14 130.42 307.58 124.92 291.61"/><polygon class="cls-7" points="262.91 169.44 263.02 169.9 262.98 169.44 262.91 169.44"/><path class="cls-4" d="M307.46,353.55q8.52-.51,17-.72l28.61-10.59a133.68,133.68,0,0,1-.68-15.54c.23-12.48,1-24.86.56-37.35-.21-5.33-.47-10.68-.71-16l-19.78,24.77-26.68,55.58Z"/><polygon class="cls-10" points="274.6 281.68 270.74 318.73 311.55 352.31 332.49 298.08 274.6 281.68"/><path class="cls-6" d="M307.46,353.55c12.11-.72,24.21-1,36.34-.81,3.55.06,7.1.11,10.65.13-.16-1-.32-1.94-.45-2.94-.65-4.78-1.15-9.5-1.41-14.25l-41,16.63L280.8,319.73l-49.22-50.87,43.2,87.29C285.68,355.22,296.57,354.2,307.46,353.55Z"/><path class="cls-4" d="M274.82,356.14,270,346.4l-3.87,10.45C269.06,356.62,271.94,356.39,274.82,356.14Z"/><path class="cls-11" d="M123.61,355.69,109.87,347c4.52,2.94,9.09,5.84,13.66,8.72Z"/><path class="cls-12" d="M266.17,356.85,270,346.4,265.9,338l-3.59,8.81-3.92,10.61C261,357.23,263.58,357.05,266.17,356.85Z"/><path class="cls-11" d="M149,355.69c13.1-.1,26.16-.41,39.25.26s26.07,1.77,39.12,2.18c1.67.05,3.34.08,5,.1L178.64,297l-5.38,22.77-50.47,22.39,19.57,13.59Z"/><polygon class="cls-10" points="109.17 338.11 122.79 342.12 182.44 319.73 97.4 283.64 65.89 318.14 109.17 338.11"/><polygon class="cls-12" points="228.74 262.28 228.64 262.09 228.3 262.33 228.74 262.28"/><polygon class="cls-12" points="178.64 296.96 150.75 277.91 99.48 266.21 97.4 283.64 182.44 319.73 178.64 296.96"/><polygon class="cls-13" points="277.93 256.24 250.03 93.35 203.66 57.62 174.24 82.5 113.15 78.49 102.51 88.18 124.63 131.34 162.6 287.86 218.49 272.43 277.93 256.24"/><polygon class="cls-14" points="203.66 66.92 250.03 93.35 222.39 56.46 199.65 49.79 194.85 57.62 203.66 66.92"/><polygon class="cls-8" points="199.65 49.79 152.89 36.07 154 70.92 179.23 93.35 203.66 66.92 199.65 49.79"/><polygon class="cls-9" points="108.36 70.92 108.85 76.39 112.63 79.5 179.14 93.43 179.23 93.35 152.89 36.07 108.36 70.92"/><polygon class="cls-7" points="172.01 119.2 174.24 125.92 150.15 143.48 147.04 135.63 172.01 119.2"/><polygon class="cls-7" points="207.23 113.23 209.9 121.25 235.01 125.17 236.72 119.74 207.23 113.23"/><polygon class="cls-15" points="150.15 143.48 210.28 204.97 207.23 152.6 185.09 131.21 203.86 127.91 213.52 154.87 222.48 169.75 235.01 125.17 209.9 121.25 203.86 127.91 185.09 131.21 174.24 125.92 150.15 143.48"/><polygon class="cls-15" points="129.79 106.88 113.15 78.49 85.73 125.17 99.48 141.08 102.51 182.94 90.08 168.98 81.04 182.69 65.89 188.29 78.34 224.6 91.16 221.4 99.48 223.09 95.7 245.83 99.48 266.21 154 287.39 164.1 288.07 129.79 106.88"/><polygon class="cls-16" points="91.16 221.4 95.7 245.83 107.81 216.93 91.16 221.4"/><polygon class="cls-16" points="190.22 280.23 154 287.39 181.52 298.08 190.22 280.23"/><polygon class="cls-16" points="75.99 192.78 97.4 207.09 91.76 187.67 75.99 192.78"/><path class="cls-9" d="M227.39,358.13c8.19.25,16.36.07,24.53-.35l-5.61-59.7-23.87-90.47L210.29,205l-40.88,36.8L189,356C201.81,356.66,214.58,357.73,227.39,358.13Z"/><path class="cls-2" d="M287,355.1,264.85,223.76l-35.48-23-6.93,6.81,22.74,150.45C259.13,357.6,273.05,356.29,287,355.1Z"/><polygon class="cls-16" points="240.99 228.75 202.9 235.27 201.19 227.53 239.28 221.03 240.99 228.75"/><circle class="cls-17" cx="173.98" cy="163.68" r="7.11"/><circle class="cls-17" cx="229.36" cy="151.12" r="7.11"/><polygon class="cls-18" points="203.86 127.91 217.51 147.34 229.37 200.8 210.28 204.97 199.96 152.19 185.09 131.21 203.86 127.91"/><polygon class="cls-7" points="58.31 110.62 81.04 182.69 88.3 180.08 103.79 189.04 108.25 132.28 90.42 121.82 113.15 78.49 108.36 70.92 58.31 110.62"/><polygon class="cls-7" points="229.37 200.8 210.28 204.97 223.24 212.85 229.37 200.8"/></g></svg>